<?xml version="1.0" encoding="UTF-8" standalone="no"?>
<!-- Created with Inkscape (http://www.inkscape.org/) -->

<svg
   xmlns:dc="http://purl.org/dc/elements/1.1/"
   xmlns:cc="http://creativecommons.org/ns#"
   xmlns:rdf="http://www.w3.org/1999/02/22-rdf-syntax-ns#"
   xmlns:svg="http://www.w3.org/2000/svg"
   xmlns="http://www.w3.org/2000/svg"
   xmlns:sodipodi="http://sodipodi.sourceforge.net/DTD/sodipodi-0.dtd"
   xmlns:inkscape="http://www.inkscape.org/namespaces/inkscape"
   version="1.1"
   id="svg3732"
   width="413.41208"
   height="409.21857"
   viewBox="0 0 413.41208 409.21857"
   sodipodi:docname="logo3.svg"
   inkscape:version="0.92.2 2405546, 2018-03-11">
  <metadata
     id="metadata3738">
    <rdf:RDF>
      <cc:Work
         rdf:about="">
        <dc:format>image/svg+xml</dc:format>
        <dc:type
           rdf:resource="http://purl.org/dc/dcmitype/StillImage" />
        <dc:title></dc:title>
      </cc:Work>
    </rdf:RDF>
  </metadata>
  <defs
     id="defs3736" />
  <sodipodi:namedview
     pagecolor="#ffffff"
     bordercolor="#666666"
     borderopacity="1"
     objecttolerance="10"
     gridtolerance="10"
     guidetolerance="10"
     inkscape:pageopacity="0"
     inkscape:pageshadow="2"
     inkscape:window-width="1272"
     inkscape:window-height="1034"
     id="namedview3734"
     showgrid="false"
     inkscape:zoom="0.65294399"
     inkscape:cx="361.24557"
     inkscape:cy="397.66565"
     inkscape:window-x="1280"
     inkscape:window-y="26"
     inkscape:window-maximized="0"
     inkscape:current-layer="svg3732"
     fit-margin-top="0"
     fit-margin-left="0"
     fit-margin-right="0"
     fit-margin-bottom="0" />
  <path
     style="fill:#231f20;fill-opacity:1;stroke-width:0.80000001"
     d="m 237.41207,408.84873 c 0,-0.38277 4.41,-2.61954 9.8,-4.97061 61.38502,-26.77556 104.72353,-75.24426 115.75688,-129.45959 14.36619,-70.59221 -24.94959,-137.03293 -88.60615,-149.73769 -21.11751,-4.21469 -38.33642,-2.19744 -55.89887,6.54875 -14.62156,7.28161 -30.68938,22.30464 -46.6685,43.63395 -5.00793,6.6847 -9.48273,12.154 -9.94402,12.154 -2.11971,0 -11.62034,-11.50484 -14.71361,-17.81753 -4.08216,-8.33081 -5.27375,-14.49158 -4.72538,-24.4311 1.01572,-18.40984 11.37765,-37.97112 30.53072,-57.635881 22.66499,-23.27053 44.54309,-34.40052 76.46893,-38.90184 9.81098,-1.38328 30.31279,-1.57573 40.02098,-0.37569 29.44818,3.64015 57.28657,14.94362 80.95527,32.87101 9.11854,6.90665 22.46861,20.379031 29.22329,29.491031 5.26772,7.1061 13.80046,21.08778 13.80046,22.61334 0,1.81064 -10.47499,-5.24609 -17.41213,-11.73011 -14.57292,-13.62105 -18.58096,-16.00497 -26.98787,-16.05194 -3.56085,-0.0199 -6.96922,0.49705 -9.36019,1.41967 l -3.76018,1.45096 3.28587,5.34904 c 22.44153,36.53234 33.4037,83.83468 29.42006,126.94904 -5.53743,59.93082 -34.4197,110.46961 -80.78556,141.36024 -15.64076,10.42046 -37.82874,20.06007 -57.59713,25.02319 -10.59277,2.65946 -12.80287,3.04748 -12.80287,2.24776 z"
     id="path5014"
     inkscape:connector-curvature="0" />
  <path
     style="fill:#ed1c24;fill-opacity:1;stroke-width:0.80000001"
     d="M 128.76515,361.35906 C 97.153532,358.59832 64.218702,345.36771 39.735519,325.59398 31.588715,319.01426 17.260092,303.96174 11.709775,296.15236 6.1878637,288.38294 -0.58837235,276.75133 0.04077865,276.12217 c 1.07157005,-1.07156 9.18649505,4.49656 16.79929435,11.52697 14.224815,13.13662 19.335326,16.14756 27.429497,16.16059 4.893264,0.008 12.342512,-1.94701 12.342512,-3.23901 0,-0.38303 -1.614971,-3.3565 -3.588822,-6.6077 C 40.327686,273.05169 29.763084,243.34848 25.798167,217.41754 24.051987,205.99736 23.367397,179.39068 24.517778,167.65509 28.636796,125.63503 44.023827,88.397169 69.573112,58.617539 93.891752,30.272309 124.95936,11.717679 165.312,1.4390492 c 8.06899,-2.05532998 11.85184,-1.87608998 6.90007,0.32695 -1.76,0.78302 -6.64513,2.99905 -10.85585,4.92451 C 116.38723,27.253729 80.832652,60.189809 62.173042,98.569129 45.661075,132.53114 42.453614,171.88333 53.453792,205.54518 c 8.41081,25.73807 25.34525,48.42285 46.838148,62.74274 25.80623,17.19369 59.1908,22.50622 84.44981,13.4386 20.75475,-7.45066 35.43744,-19.98752 57.28962,-48.9169 4.56666,-6.04564 8.58701,-11.09592 8.93412,-11.22283 0.3471,-0.12691 3.19609,2.51582 6.33109,5.87275 11.08323,11.86782 15.57279,26.3781 12.87471,41.61107 -3.3954,19.16982 -15.15994,38.39464 -35.04668,57.2709 -17.30867,16.42917 -32.15167,24.80265 -54.18522,30.56784 -15.78509,4.13025 -36.04613,5.85823 -52.17424,4.44971 z"
     id="path5012"
     inkscape:connector-curvature="0" />
  <path
     style="fill:#bcbec0;fill-opacity:1;stroke-width:0.80000001"
     d="m 157.14818,254.54966 c -12.95164,-4.08201 -16.75992,-21.07408 -6.8338,-30.49157 11.42653,-10.84101 30.41198,-2.77005 30.41198,12.92852 0,12.59149 -11.70008,21.30672 -23.57818,17.56305 z"
     id="path5010"
     inkscape:connector-curvature="0" />
  <path
     style="fill:#bcbec0;fill-opacity:1;stroke-width:0.80000001"
     d="m 109.2989,234.93836 c -8.39733,-5.00427 -8.1529,-17.75487 0.41833,-21.82219 11.12501,-5.27917 22.07538,5.6712 16.79621,16.79622 -2.8708,6.04978 -11.34493,8.52389 -17.21454,5.02597 z"
     id="path5008"
     inkscape:connector-curvature="0" />
  <path
     style="fill:#bcbec0;fill-opacity:1;stroke-width:0.80000001"
     d="m 197.63174,227.29427 c -5.1466,-1.82238 -10.79403,-7.3695 -13.38846,-13.15067 -1.96526,-4.37919 -2.18242,-5.66519 -1.86948,-11.07104 0.27757,-4.79483 0.85459,-7.03596 2.67069,-10.37271 9.58013,-17.60185 34.76316,-16.81741 43.71756,1.36179 1.47097,2.98636 1.84757,5.06718 1.83806,10.1559 -0.0194,10.41579 -4.28496,17.42479 -13.3658,21.96254 -4.12487,2.06122 -5.75334,2.42771 -10.55001,2.3743 -3.11973,-0.0347 -7.19338,-0.60178 -9.05256,-1.26011 z"
     id="path5006"
     inkscape:connector-curvature="0" />
  <path
     style="fill:#bcbec0;fill-opacity:1;stroke-width:0.80000001"
     d="m 322.51471,220.26143 c -3.28828,-1.42248 -5.10264,-4.14044 -5.10264,-7.64389 0,-7.53985 8.59638,-11.18544 13.89091,-5.89091 6.40962,6.40962 -0.53505,17.10508 -8.78827,13.5348 z"
     id="path5004"
     inkscape:connector-curvature="0" />
  <path
     style="fill:#bcbec0;fill-opacity:1;stroke-width:0.80000001"
     d="m 84.122572,203.87074 c -2.73447,-1.16514 -5.11049,-4.8107 -5.11049,-7.84109 0,-3.99507 4.31352,-8.21211 8.39999,-8.21211 4.13894,0 8.4,4.21408 8.4,8.30738 0,5.53122 -6.60904,9.91057 -11.6895,7.74582 z"
     id="path5002"
     inkscape:connector-curvature="0" />
  <path
     style="fill:#bcbec0;fill-opacity:1;stroke-width:0.80000001"
     d="m 293.70663,196.58287 c -3.64719,-1.10935 -8.00618,-6.29088 -8.68819,-10.32765 -0.77207,-4.56986 2.04715,-10.11634 6.44062,-12.67116 8.06286,-4.68856 18.75301,1.60459 18.75301,11.03966 0,7.92725 -8.79951,14.30301 -16.50544,11.95915 z"
     id="path5000"
     inkscape:connector-curvature="0" />
  <path
     style="fill:#bcbec0;fill-opacity:1;stroke-width:0.80000001"
     d="m 243.01207,188.1421 c -12.03004,-5.2108 -14.58741,-21.9535 -4.63508,-30.34516 3.72876,-3.14404 7.13746,-4.38209 12.00938,-4.36183 5.45734,0.0227 9.9935,2.1222 13.5419,6.2677 7.91911,9.2517 5.1542,22.49512 -5.88433,28.18483 -3.62772,1.86988 -11.01373,1.99491 -15.03187,0.25446 z"
     id="path4995"
     inkscape:connector-curvature="0" />
  <g
     id="g3818"
     transform="translate(-547.72818,-463.5826)" />
  <g
     id="g3742"
     transform="translate(-44.155648,-462.49965)" />
</svg>
